<?xml version="1.0" encoding="utf-8"?>
<!-- Generator: Adobe Illustrator 23.0.1, SVG Export Plug-In . SVG Version: 6.00 Build 0)  -->
<svg version="1.1" id="Capa_1" xmlns="http://www.w3.org/2000/svg" xmlns:xlink="http://www.w3.org/1999/xlink" x="0px" y="0px"
	 viewBox="0 0 60 60" style="enable-background:new 0 0 60 60;" xml:space="preserve">
<style type="text/css">
	.st0{fill:#FFFFFF;stroke:#FFFFFF;stroke-width:0.25;stroke-miterlimit:10;}
</style>
<g>
	<path class="st0" d="M34.8,12.1L34.8,12.1z M34.8,12.1L34.8,12.1z M34.8,12.1L34.8,12.1z M34.8,12.1L34.8,12.1z M34.8,12.1
		L34.8,12.1z M34.8,12.1L34.8,12.1z M34.8,12.1L34.8,12.1z M34.8,12.1L34.8,12.1z M34.8,12.1L34.8,12.1z M34.8,12.1L34.8,12.1z
		 M34.8,12.1L34.8,12.1z M34.8,12.1L34.8,12.1z M34.8,12.1L34.8,12.1z M34.8,12.1L34.8,12.1z M34.8,12.1L34.8,12.1z M34.8,12.1
		L34.8,12.1z M34.8,12.1L34.8,12.1z M34.8,12.1L34.8,12.1z M34.8,12.1L34.8,12.1z M34.8,12.1L34.8,12.1z M34.8,12.1L34.8,12.1z
		 M34.8,12.1L34.8,12.1z M34.8,12.1L34.8,12.1z M34.8,12.1L34.8,12.1z M34.8,12.1L34.8,12.1z M34.8,12.1L34.8,12.1z M34.8,12.1
		L34.8,12.1z M34.8,12.1L34.8,12.1z M34.8,12.1L34.8,12.1z"/>
	<path class="st0" d="M34.9,12.1L34.9,12.1z M34.9,12.1L34.9,12.1z M34.9,12.1L34.9,12.1z M34.9,12.1L34.9,12.1z M34.9,12.1
		L34.9,12.1z M34.9,12.1L34.9,12.1z M34.9,12.1L34.9,12.1z M34.9,12.1L34.9,12.1z M34.9,12.1L34.9,12.1z M34.9,12.1L34.9,12.1z
		 M34.9,12.1L34.9,12.1z M34.9,12.1L34.9,12.1z M34.9,12.1L34.9,12.1z M34.9,12.1L34.9,12.1z M34.9,12.1L34.9,12.1z M34.9,12.1
		L34.9,12.1z M34.9,12.1L34.9,12.1z M34.9,12.1L34.9,12.1z M34.9,12.1L34.9,12.1z M34.9,12.1L34.9,12.1z M34.9,12.1L34.9,12.1z
		 M34.9,12.1L34.9,12.1z M34.9,12.1L34.9,12.1z M34.9,12.1L34.9,12.1z M34.9,12.1L34.9,12.1z M34.9,12.1L34.9,12.1z M34.9,12.1
		L34.9,12.1z M34.9,12.1L34.9,12.1z M34.9,12.1L34.9,12.1z"/>
	<path class="st0" d="M28.7,52.3c-1.2-0.1-2.3-0.2-3.4-0.5v-21l-5.1,1.9l-2.8,1l-1.2,0.5L12,35.7L12,36c0.6,1.8,1.4,3.5,2.5,5
		c0.5,0.7,1,1.3,1.5,1.9c0.4,0.4,0.8,0.8,1.2,1.2c0.8,0.8,1.7,1.4,2.7,2V50c-1.2-0.6-2.4-1.4-3.5-2.2c-0.4-0.3-0.7-0.6-1.1-0.9
		c-1-0.9-1.9-1.8-2.7-2.8c-1.7-2-2.9-4.4-3.8-6.9c-0.4-1-0.6-2.1-0.8-3.2c0-0.2-0.1-0.4-0.1-0.6c-0.2-1.1-0.2-2.2-0.2-3.3
		c0-3.4,0.8-6.8,2.3-9.8c0.6-1.2,1.3-2.3,2-3.3c1.2-1.7,2.7-3.2,4.4-4.5c1.2-0.9,2.5-1.7,3.9-2.4c1.5-0.7,3.1-1.3,4.8-1.7
		c1.2-0.3,2.4-0.4,3.6-0.5v19.4l-2.1,3.1h2.1L28.7,52.3z M25,11.9c-1.7,0.5-3.4,1.2-5,2.2c-1.5,0.9-2.8,2-3.9,3.3
		c-0.3,0.3-0.5,0.6-0.8,0.9c-0.8,1-1.6,2.2-2.2,3.4c-1.3,2.6-2,5.5-2,8.4c0,0.7,0,1.3,0.1,2v0.3l5.6-2l3.4-1.3l5-1.8V11.8L25,11.9z"
		/>
	<path class="st0" d="M34.8,12.1L34.8,12.1z M34.8,12.1L34.8,12.1z M34.8,12.1L34.8,12.1z M34.8,12.1L34.8,12.1z M34.8,12.1
		L34.8,12.1z"/>
	<path class="st0" d="M34.9,12.1L34.9,12.1z M34.9,12.1L34.9,12.1z M34.9,12.1L34.9,12.1z M34.9,12.1L34.9,12.1z M34.9,12.1
		L34.9,12.1z"/>
	<path class="st0" d="M31.1,7.9c1.2,0.1,2.4,0.2,3.6,0.5c0.8,0.2,1.6,0.4,2.3,0.7c0.9,0.3,1.7,0.6,2.5,1c0.4,0.2,0.7,0.4,1.1,0.6
		c1,0.5,1.9,1.1,2.8,1.8c2.2,1.7,4,3.7,5.4,6c0.7,1.1,1.2,2.3,1.7,3.5c1,2.6,1.6,5.3,1.6,8.1c0,1.3-0.1,2.6-0.3,3.9
		c-0.1,0.5-0.2,1-0.3,1.4c-0.3,1.2-0.7,2.3-1.2,3.5l-3.1-1.4c0.4-1.1,0.8-2.2,1-3.3c0-0.1,0.1-0.2,0.1-0.3c0.7-3.6,0.4-7.3-1-10.7
		c-0.5-1.2-1.1-2.4-1.9-3.5c-0.5-0.8-1.1-1.5-1.7-2.2l-0.4-0.5v30.9c-1.1,0.8-2.2,1.5-3.4,2.1V14.1L39.6,14c-0.3-0.2-0.7-0.4-1-0.6
		c-1.2-0.6-2.5-1.1-3.8-1.5l-0.3-0.1v40.1c-1.1,0.2-2.3,0.4-3.4,0.5L31.1,7.9z"/>
	<path class="st0" d="M30,59.3c-16.1,0-29.2-13.1-29.2-29.2S13.8,0.8,30,0.8s29.2,13.1,29.2,29.2C59.1,46.2,46.1,59.3,30,59.3z
		 M30,4.3C15.7,4.3,4.2,15.8,4.2,30.1S15.7,55.9,30,55.9s25.8-11.5,25.8-25.8C55.7,15.8,44.2,4.3,30,4.3z"/>
</g>
</svg>
